<svg xmlns="http://www.w3.org/2000/svg" viewBox="0 0 591 87" width="591" height="87">
  <title>toygarden</title>
  <!-- tools/logo.mjs が焼く決定論的ロゴ (light) — MOTHER2風: 赤一色・縦シェーディング・硬い落ち影 -->
  <g>
    <rect x="17" y="17" width="42" height="7" fill="#e8c9c4"/>
    <rect x="17" y="24" width="7" height="7" fill="#e8c9c4"/>
    <rect x="31" y="24" width="14" height="7" fill="#e8c9c4"/>
    <rect x="52" y="24" width="7" height="7" fill="#e8c9c4"/>
    <rect x="31" y="31" width="14" height="7" fill="#e8c9c4"/>
    <rect x="31" y="38" width="14" height="7" fill="#e8c9c4"/>
    <rect x="31" y="45" width="14" height="7" fill="#e8c9c4"/>
    <rect x="31" y="52" width="14" height="7" fill="#e8c9c4"/>
    <rect x="24" y="59" width="28" height="7" fill="#e8c9c4"/>
    <rect x="94" y="17" width="21" height="7" fill="#e8c9c4"/>
    <rect x="87" y="24" width="14" height="7" fill="#e8c9c4"/>
    <rect x="108" y="24" width="14" height="7" fill="#e8c9c4"/>
    <rect x="80" y="31" width="14" height="7" fill="#e8c9c4"/>
    <rect x="115" y="31" width="14" height="7" fill="#e8c9c4"/>
    <rect x="80" y="38" width="14" height="7" fill="#e8c9c4"/>
    <rect x="115" y="38" width="14" height="7" fill="#e8c9c4"/>
    <rect x="80" y="45" width="14" height="7" fill="#e8c9c4"/>
    <rect x="115" y="45" width="14" height="7" fill="#e8c9c4"/>
    <rect x="87" y="52" width="14" height="7" fill="#e8c9c4"/>
    <rect x="108" y="52" width="14" height="7" fill="#e8c9c4"/>
    <rect x="94" y="59" width="21" height="7" fill="#e8c9c4"/>
    <rect x="143" y="17" width="14" height="7" fill="#e8c9c4"/>
    <rect x="171" y="17" width="14" height="7" fill="#e8c9c4"/>
    <rect x="143" y="24" width="14" height="7" fill="#e8c9c4"/>
    <rect x="171" y="24" width="14" height="7" fill="#e8c9c4"/>
    <rect x="143" y="31" width="14" height="7" fill="#e8c9c4"/>
    <rect x="171" y="31" width="14" height="7" fill="#e8c9c4"/>
    <rect x="150" y="38" width="28" height="7" fill="#e8c9c4"/>
    <rect x="157" y="45" width="14" height="7" fill="#e8c9c4"/>
    <rect x="157" y="52" width="14" height="7" fill="#e8c9c4"/>
    <rect x="150" y="59" width="28" height="7" fill="#e8c9c4"/>
    <rect x="220" y="17" width="28" height="7" fill="#e8c9c4"/>
    <rect x="213" y="24" width="14" height="7" fill="#e8c9c4"/>
    <rect x="241" y="24" width="14" height="7" fill="#e8c9c4"/>
    <rect x="206" y="31" width="14" height="7" fill="#e8c9c4"/>
    <rect x="206" y="38" width="14" height="7" fill="#e8c9c4"/>
    <rect x="206" y="45" width="14" height="7" fill="#e8c9c4"/>
    <rect x="234" y="45" width="21" height="7" fill="#e8c9c4"/>
    <rect x="213" y="52" width="14" height="7" fill="#e8c9c4"/>
    <rect x="241" y="52" width="14" height="7" fill="#e8c9c4"/>
    <rect x="220" y="59" width="35" height="7" fill="#e8c9c4"/>
    <rect x="283" y="17" width="14" height="7" fill="#e8c9c4"/>
    <rect x="276" y="24" width="28" height="7" fill="#e8c9c4"/>
    <rect x="269" y="31" width="14" height="7" fill="#e8c9c4"/>
    <rect x="297" y="31" width="14" height="7" fill="#e8c9c4"/>
    <rect x="269" y="38" width="14" height="7" fill="#e8c9c4"/>
    <rect x="297" y="38" width="14" height="7" fill="#e8c9c4"/>
    <rect x="269" y="45" width="42" height="7" fill="#e8c9c4"/>
    <rect x="269" y="52" width="14" height="7" fill="#e8c9c4"/>
    <rect x="297" y="52" width="14" height="7" fill="#e8c9c4"/>
    <rect x="269" y="59" width="14" height="7" fill="#e8c9c4"/>
    <rect x="297" y="59" width="14" height="7" fill="#e8c9c4"/>
    <rect x="332" y="17" width="42" height="7" fill="#e8c9c4"/>
    <rect x="339" y="24" width="14" height="7" fill="#e8c9c4"/>
    <rect x="367" y="24" width="14" height="7" fill="#e8c9c4"/>
    <rect x="339" y="31" width="14" height="7" fill="#e8c9c4"/>
    <rect x="367" y="31" width="14" height="7" fill="#e8c9c4"/>
    <rect x="339" y="38" width="35" height="7" fill="#e8c9c4"/>
    <rect x="339" y="45" width="14" height="7" fill="#e8c9c4"/>
    <rect x="360" y="45" width="14" height="7" fill="#e8c9c4"/>
    <rect x="339" y="52" width="14" height="7" fill="#e8c9c4"/>
    <rect x="367" y="52" width="14" height="7" fill="#e8c9c4"/>
    <rect x="332" y="59" width="21" height="7" fill="#e8c9c4"/>
    <rect x="367" y="59" width="14" height="7" fill="#e8c9c4"/>
    <rect x="395" y="17" width="35" height="7" fill="#e8c9c4"/>
    <rect x="402" y="24" width="14" height="7" fill="#e8c9c4"/>
    <rect x="423" y="24" width="14" height="7" fill="#e8c9c4"/>
    <rect x="402" y="31" width="14" height="7" fill="#e8c9c4"/>
    <rect x="430" y="31" width="14" height="7" fill="#e8c9c4"/>
    <rect x="402" y="38" width="14" height="7" fill="#e8c9c4"/>
    <rect x="430" y="38" width="14" height="7" fill="#e8c9c4"/>
    <rect x="402" y="45" width="14" height="7" fill="#e8c9c4"/>
    <rect x="430" y="45" width="14" height="7" fill="#e8c9c4"/>
    <rect x="402" y="52" width="14" height="7" fill="#e8c9c4"/>
    <rect x="423" y="52" width="14" height="7" fill="#e8c9c4"/>
    <rect x="395" y="59" width="35" height="7" fill="#e8c9c4"/>
    <rect x="458" y="17" width="49" height="7" fill="#e8c9c4"/>
    <rect x="465" y="24" width="14" height="7" fill="#e8c9c4"/>
    <rect x="500" y="24" width="7" height="7" fill="#e8c9c4"/>
    <rect x="465" y="31" width="14" height="7" fill="#e8c9c4"/>
    <rect x="486" y="31" width="7" height="7" fill="#e8c9c4"/>
    <rect x="465" y="38" width="28" height="7" fill="#e8c9c4"/>
    <rect x="465" y="45" width="14" height="7" fill="#e8c9c4"/>
    <rect x="486" y="45" width="7" height="7" fill="#e8c9c4"/>
    <rect x="465" y="52" width="14" height="7" fill="#e8c9c4"/>
    <rect x="500" y="52" width="7" height="7" fill="#e8c9c4"/>
    <rect x="458" y="59" width="49" height="7" fill="#e8c9c4"/>
    <rect x="521" y="17" width="14" height="7" fill="#e8c9c4"/>
    <rect x="556" y="17" width="14" height="7" fill="#e8c9c4"/>
    <rect x="521" y="24" width="21" height="7" fill="#e8c9c4"/>
    <rect x="556" y="24" width="14" height="7" fill="#e8c9c4"/>
    <rect x="521" y="31" width="28" height="7" fill="#e8c9c4"/>
    <rect x="556" y="31" width="14" height="7" fill="#e8c9c4"/>
    <rect x="521" y="38" width="14" height="7" fill="#e8c9c4"/>
    <rect x="542" y="38" width="28" height="7" fill="#e8c9c4"/>
    <rect x="521" y="45" width="14" height="7" fill="#e8c9c4"/>
    <rect x="549" y="45" width="21" height="7" fill="#e8c9c4"/>
    <rect x="521" y="52" width="14" height="7" fill="#e8c9c4"/>
    <rect x="556" y="52" width="14" height="7" fill="#e8c9c4"/>
    <rect x="521" y="59" width="14" height="7" fill="#e8c9c4"/>
    <rect x="556" y="59" width="14" height="7" fill="#e8c9c4"/>
  </g>
  <g>
    <rect x="14" y="14" width="42" height="7" fill="#be261a"/>
    <rect x="14" y="21" width="7" height="7" fill="#b42419"/>
    <rect x="28" y="21" width="14" height="7" fill="#b42419"/>
    <rect x="49" y="21" width="7" height="7" fill="#b42419"/>
    <rect x="28" y="28" width="14" height="7" fill="#a92217"/>
    <rect x="28" y="35" width="14" height="7" fill="#9f2016"/>
    <rect x="28" y="42" width="14" height="7" fill="#951e14"/>
    <rect x="28" y="49" width="14" height="7" fill="#8b1c13"/>
    <rect x="21" y="56" width="28" height="7" fill="#801a12"/>
    <rect x="91" y="14" width="21" height="7" fill="#be261a"/>
    <rect x="84" y="21" width="14" height="7" fill="#b42419"/>
    <rect x="105" y="21" width="14" height="7" fill="#b42419"/>
    <rect x="77" y="28" width="14" height="7" fill="#a92217"/>
    <rect x="112" y="28" width="14" height="7" fill="#a92217"/>
    <rect x="77" y="35" width="14" height="7" fill="#9f2016"/>
    <rect x="112" y="35" width="14" height="7" fill="#9f2016"/>
    <rect x="77" y="42" width="14" height="7" fill="#951e14"/>
    <rect x="112" y="42" width="14" height="7" fill="#951e14"/>
    <rect x="84" y="49" width="14" height="7" fill="#8b1c13"/>
    <rect x="105" y="49" width="14" height="7" fill="#8b1c13"/>
    <rect x="91" y="56" width="21" height="7" fill="#801a12"/>
    <rect x="140" y="14" width="14" height="7" fill="#be261a"/>
    <rect x="168" y="14" width="14" height="7" fill="#be261a"/>
    <rect x="140" y="21" width="14" height="7" fill="#b42419"/>
    <rect x="168" y="21" width="14" height="7" fill="#b42419"/>
    <rect x="140" y="28" width="14" height="7" fill="#a92217"/>
    <rect x="168" y="28" width="14" height="7" fill="#a92217"/>
    <rect x="147" y="35" width="28" height="7" fill="#9f2016"/>
    <rect x="154" y="42" width="14" height="7" fill="#951e14"/>
    <rect x="154" y="49" width="14" height="7" fill="#8b1c13"/>
    <rect x="147" y="56" width="28" height="7" fill="#801a12"/>
    <rect x="217" y="14" width="28" height="7" fill="#be261a"/>
    <rect x="210" y="21" width="14" height="7" fill="#b42419"/>
    <rect x="238" y="21" width="14" height="7" fill="#b42419"/>
    <rect x="203" y="28" width="14" height="7" fill="#a92217"/>
    <rect x="203" y="35" width="14" height="7" fill="#9f2016"/>
    <rect x="203" y="42" width="14" height="7" fill="#951e14"/>
    <rect x="231" y="42" width="21" height="7" fill="#951e14"/>
    <rect x="210" y="49" width="14" height="7" fill="#8b1c13"/>
    <rect x="238" y="49" width="14" height="7" fill="#8b1c13"/>
    <rect x="217" y="56" width="35" height="7" fill="#801a12"/>
    <rect x="280" y="14" width="14" height="7" fill="#be261a"/>
    <rect x="273" y="21" width="28" height="7" fill="#b42419"/>
    <rect x="266" y="28" width="14" height="7" fill="#a92217"/>
    <rect x="294" y="28" width="14" height="7" fill="#a92217"/>
    <rect x="266" y="35" width="14" height="7" fill="#9f2016"/>
    <rect x="294" y="35" width="14" height="7" fill="#9f2016"/>
    <rect x="266" y="42" width="42" height="7" fill="#951e14"/>
    <rect x="266" y="49" width="14" height="7" fill="#8b1c13"/>
    <rect x="294" y="49" width="14" height="7" fill="#8b1c13"/>
    <rect x="266" y="56" width="14" height="7" fill="#801a12"/>
    <rect x="294" y="56" width="14" height="7" fill="#801a12"/>
    <rect x="329" y="14" width="42" height="7" fill="#be261a"/>
    <rect x="336" y="21" width="14" height="7" fill="#b42419"/>
    <rect x="364" y="21" width="14" height="7" fill="#b42419"/>
    <rect x="336" y="28" width="14" height="7" fill="#a92217"/>
    <rect x="364" y="28" width="14" height="7" fill="#a92217"/>
    <rect x="336" y="35" width="35" height="7" fill="#9f2016"/>
    <rect x="336" y="42" width="14" height="7" fill="#951e14"/>
    <rect x="357" y="42" width="14" height="7" fill="#951e14"/>
    <rect x="336" y="49" width="14" height="7" fill="#8b1c13"/>
    <rect x="364" y="49" width="14" height="7" fill="#8b1c13"/>
    <rect x="329" y="56" width="21" height="7" fill="#801a12"/>
    <rect x="364" y="56" width="14" height="7" fill="#801a12"/>
    <rect x="392" y="14" width="35" height="7" fill="#be261a"/>
    <rect x="399" y="21" width="14" height="7" fill="#b42419"/>
    <rect x="420" y="21" width="14" height="7" fill="#b42419"/>
    <rect x="399" y="28" width="14" height="7" fill="#a92217"/>
    <rect x="427" y="28" width="14" height="7" fill="#a92217"/>
    <rect x="399" y="35" width="14" height="7" fill="#9f2016"/>
    <rect x="427" y="35" width="14" height="7" fill="#9f2016"/>
    <rect x="399" y="42" width="14" height="7" fill="#951e14"/>
    <rect x="427" y="42" width="14" height="7" fill="#951e14"/>
    <rect x="399" y="49" width="14" height="7" fill="#8b1c13"/>
    <rect x="420" y="49" width="14" height="7" fill="#8b1c13"/>
    <rect x="392" y="56" width="35" height="7" fill="#801a12"/>
    <rect x="455" y="14" width="49" height="7" fill="#be261a"/>
    <rect x="462" y="21" width="14" height="7" fill="#b42419"/>
    <rect x="497" y="21" width="7" height="7" fill="#b42419"/>
    <rect x="462" y="28" width="14" height="7" fill="#a92217"/>
    <rect x="483" y="28" width="7" height="7" fill="#a92217"/>
    <rect x="462" y="35" width="28" height="7" fill="#9f2016"/>
    <rect x="462" y="42" width="14" height="7" fill="#951e14"/>
    <rect x="483" y="42" width="7" height="7" fill="#951e14"/>
    <rect x="462" y="49" width="14" height="7" fill="#8b1c13"/>
    <rect x="497" y="49" width="7" height="7" fill="#8b1c13"/>
    <rect x="455" y="56" width="49" height="7" fill="#801a12"/>
    <rect x="518" y="14" width="14" height="7" fill="#be261a"/>
    <rect x="553" y="14" width="14" height="7" fill="#be261a"/>
    <rect x="518" y="21" width="21" height="7" fill="#b42419"/>
    <rect x="553" y="21" width="14" height="7" fill="#b42419"/>
    <rect x="518" y="28" width="28" height="7" fill="#a92217"/>
    <rect x="553" y="28" width="14" height="7" fill="#a92217"/>
    <rect x="518" y="35" width="14" height="7" fill="#9f2016"/>
    <rect x="539" y="35" width="28" height="7" fill="#9f2016"/>
    <rect x="518" y="42" width="14" height="7" fill="#951e14"/>
    <rect x="546" y="42" width="21" height="7" fill="#951e14"/>
    <rect x="518" y="49" width="14" height="7" fill="#8b1c13"/>
    <rect x="553" y="49" width="14" height="7" fill="#8b1c13"/>
    <rect x="518" y="56" width="14" height="7" fill="#801a12"/>
    <rect x="553" y="56" width="14" height="7" fill="#801a12"/>
  </g>
</svg>
