<svg xmlns="http://www.w3.org/2000/svg" viewBox="0 0 465 87" width="465" height="87">
  <title>umeplay</title>
  <!-- tools/logo.mjs が焼く決定論的ロゴ (light) — MOTHER2風: 赤一色・縦シェーディング・硬い落ち影 -->
  <g>
    <rect x="17" y="17" width="14" height="7" fill="#e8c9c4"/>
    <rect x="45" y="17" width="14" height="7" fill="#e8c9c4"/>
    <rect x="17" y="24" width="14" height="7" fill="#e8c9c4"/>
    <rect x="45" y="24" width="14" height="7" fill="#e8c9c4"/>
    <rect x="17" y="31" width="14" height="7" fill="#e8c9c4"/>
    <rect x="45" y="31" width="14" height="7" fill="#e8c9c4"/>
    <rect x="17" y="38" width="14" height="7" fill="#e8c9c4"/>
    <rect x="45" y="38" width="14" height="7" fill="#e8c9c4"/>
    <rect x="17" y="45" width="14" height="7" fill="#e8c9c4"/>
    <rect x="45" y="45" width="14" height="7" fill="#e8c9c4"/>
    <rect x="17" y="52" width="14" height="7" fill="#e8c9c4"/>
    <rect x="45" y="52" width="14" height="7" fill="#e8c9c4"/>
    <rect x="17" y="59" width="42" height="7" fill="#e8c9c4"/>
    <rect x="80" y="17" width="14" height="7" fill="#e8c9c4"/>
    <rect x="115" y="17" width="14" height="7" fill="#e8c9c4"/>
    <rect x="80" y="24" width="21" height="7" fill="#e8c9c4"/>
    <rect x="108" y="24" width="21" height="7" fill="#e8c9c4"/>
    <rect x="80" y="31" width="49" height="7" fill="#e8c9c4"/>
    <rect x="80" y="38" width="49" height="7" fill="#e8c9c4"/>
    <rect x="80" y="45" width="14" height="7" fill="#e8c9c4"/>
    <rect x="101" y="45" width="7" height="7" fill="#e8c9c4"/>
    <rect x="115" y="45" width="14" height="7" fill="#e8c9c4"/>
    <rect x="80" y="52" width="14" height="7" fill="#e8c9c4"/>
    <rect x="115" y="52" width="14" height="7" fill="#e8c9c4"/>
    <rect x="80" y="59" width="14" height="7" fill="#e8c9c4"/>
    <rect x="115" y="59" width="14" height="7" fill="#e8c9c4"/>
    <rect x="143" y="17" width="49" height="7" fill="#e8c9c4"/>
    <rect x="150" y="24" width="14" height="7" fill="#e8c9c4"/>
    <rect x="185" y="24" width="7" height="7" fill="#e8c9c4"/>
    <rect x="150" y="31" width="14" height="7" fill="#e8c9c4"/>
    <rect x="171" y="31" width="7" height="7" fill="#e8c9c4"/>
    <rect x="150" y="38" width="28" height="7" fill="#e8c9c4"/>
    <rect x="150" y="45" width="14" height="7" fill="#e8c9c4"/>
    <rect x="171" y="45" width="7" height="7" fill="#e8c9c4"/>
    <rect x="150" y="52" width="14" height="7" fill="#e8c9c4"/>
    <rect x="185" y="52" width="7" height="7" fill="#e8c9c4"/>
    <rect x="143" y="59" width="49" height="7" fill="#e8c9c4"/>
    <rect x="206" y="17" width="42" height="7" fill="#e8c9c4"/>
    <rect x="213" y="24" width="14" height="7" fill="#e8c9c4"/>
    <rect x="241" y="24" width="14" height="7" fill="#e8c9c4"/>
    <rect x="213" y="31" width="14" height="7" fill="#e8c9c4"/>
    <rect x="241" y="31" width="14" height="7" fill="#e8c9c4"/>
    <rect x="213" y="38" width="35" height="7" fill="#e8c9c4"/>
    <rect x="213" y="45" width="14" height="7" fill="#e8c9c4"/>
    <rect x="213" y="52" width="14" height="7" fill="#e8c9c4"/>
    <rect x="206" y="59" width="28" height="7" fill="#e8c9c4"/>
    <rect x="269" y="17" width="28" height="7" fill="#e8c9c4"/>
    <rect x="276" y="24" width="14" height="7" fill="#e8c9c4"/>
    <rect x="276" y="31" width="14" height="7" fill="#e8c9c4"/>
    <rect x="276" y="38" width="14" height="7" fill="#e8c9c4"/>
    <rect x="276" y="45" width="14" height="7" fill="#e8c9c4"/>
    <rect x="311" y="45" width="7" height="7" fill="#e8c9c4"/>
    <rect x="276" y="52" width="14" height="7" fill="#e8c9c4"/>
    <rect x="304" y="52" width="14" height="7" fill="#e8c9c4"/>
    <rect x="269" y="59" width="49" height="7" fill="#e8c9c4"/>
    <rect x="346" y="17" width="14" height="7" fill="#e8c9c4"/>
    <rect x="339" y="24" width="28" height="7" fill="#e8c9c4"/>
    <rect x="332" y="31" width="14" height="7" fill="#e8c9c4"/>
    <rect x="360" y="31" width="14" height="7" fill="#e8c9c4"/>
    <rect x="332" y="38" width="14" height="7" fill="#e8c9c4"/>
    <rect x="360" y="38" width="14" height="7" fill="#e8c9c4"/>
    <rect x="332" y="45" width="42" height="7" fill="#e8c9c4"/>
    <rect x="332" y="52" width="14" height="7" fill="#e8c9c4"/>
    <rect x="360" y="52" width="14" height="7" fill="#e8c9c4"/>
    <rect x="332" y="59" width="14" height="7" fill="#e8c9c4"/>
    <rect x="360" y="59" width="14" height="7" fill="#e8c9c4"/>
    <rect x="395" y="17" width="14" height="7" fill="#e8c9c4"/>
    <rect x="423" y="17" width="14" height="7" fill="#e8c9c4"/>
    <rect x="395" y="24" width="14" height="7" fill="#e8c9c4"/>
    <rect x="423" y="24" width="14" height="7" fill="#e8c9c4"/>
    <rect x="395" y="31" width="14" height="7" fill="#e8c9c4"/>
    <rect x="423" y="31" width="14" height="7" fill="#e8c9c4"/>
    <rect x="402" y="38" width="28" height="7" fill="#e8c9c4"/>
    <rect x="409" y="45" width="14" height="7" fill="#e8c9c4"/>
    <rect x="409" y="52" width="14" height="7" fill="#e8c9c4"/>
    <rect x="402" y="59" width="28" height="7" fill="#e8c9c4"/>
  </g>
  <g>
    <rect x="14" y="14" width="14" height="7" fill="#be261a"/>
    <rect x="42" y="14" width="14" height="7" fill="#be261a"/>
    <rect x="14" y="21" width="14" height="7" fill="#b42419"/>
    <rect x="42" y="21" width="14" height="7" fill="#b42419"/>
    <rect x="14" y="28" width="14" height="7" fill="#a92217"/>
    <rect x="42" y="28" width="14" height="7" fill="#a92217"/>
    <rect x="14" y="35" width="14" height="7" fill="#9f2016"/>
    <rect x="42" y="35" width="14" height="7" fill="#9f2016"/>
    <rect x="14" y="42" width="14" height="7" fill="#951e14"/>
    <rect x="42" y="42" width="14" height="7" fill="#951e14"/>
    <rect x="14" y="49" width="14" height="7" fill="#8b1c13"/>
    <rect x="42" y="49" width="14" height="7" fill="#8b1c13"/>
    <rect x="14" y="56" width="42" height="7" fill="#801a12"/>
    <rect x="77" y="14" width="14" height="7" fill="#be261a"/>
    <rect x="112" y="14" width="14" height="7" fill="#be261a"/>
    <rect x="77" y="21" width="21" height="7" fill="#b42419"/>
    <rect x="105" y="21" width="21" height="7" fill="#b42419"/>
    <rect x="77" y="28" width="49" height="7" fill="#a92217"/>
    <rect x="77" y="35" width="49" height="7" fill="#9f2016"/>
    <rect x="77" y="42" width="14" height="7" fill="#951e14"/>
    <rect x="98" y="42" width="7" height="7" fill="#951e14"/>
    <rect x="112" y="42" width="14" height="7" fill="#951e14"/>
    <rect x="77" y="49" width="14" height="7" fill="#8b1c13"/>
    <rect x="112" y="49" width="14" height="7" fill="#8b1c13"/>
    <rect x="77" y="56" width="14" height="7" fill="#801a12"/>
    <rect x="112" y="56" width="14" height="7" fill="#801a12"/>
    <rect x="140" y="14" width="49" height="7" fill="#be261a"/>
    <rect x="147" y="21" width="14" height="7" fill="#b42419"/>
    <rect x="182" y="21" width="7" height="7" fill="#b42419"/>
    <rect x="147" y="28" width="14" height="7" fill="#a92217"/>
    <rect x="168" y="28" width="7" height="7" fill="#a92217"/>
    <rect x="147" y="35" width="28" height="7" fill="#9f2016"/>
    <rect x="147" y="42" width="14" height="7" fill="#951e14"/>
    <rect x="168" y="42" width="7" height="7" fill="#951e14"/>
    <rect x="147" y="49" width="14" height="7" fill="#8b1c13"/>
    <rect x="182" y="49" width="7" height="7" fill="#8b1c13"/>
    <rect x="140" y="56" width="49" height="7" fill="#801a12"/>
    <rect x="203" y="14" width="42" height="7" fill="#be261a"/>
    <rect x="210" y="21" width="14" height="7" fill="#b42419"/>
    <rect x="238" y="21" width="14" height="7" fill="#b42419"/>
    <rect x="210" y="28" width="14" height="7" fill="#a92217"/>
    <rect x="238" y="28" width="14" height="7" fill="#a92217"/>
    <rect x="210" y="35" width="35" height="7" fill="#9f2016"/>
    <rect x="210" y="42" width="14" height="7" fill="#951e14"/>
    <rect x="210" y="49" width="14" height="7" fill="#8b1c13"/>
    <rect x="203" y="56" width="28" height="7" fill="#801a12"/>
    <rect x="266" y="14" width="28" height="7" fill="#be261a"/>
    <rect x="273" y="21" width="14" height="7" fill="#b42419"/>
    <rect x="273" y="28" width="14" height="7" fill="#a92217"/>
    <rect x="273" y="35" width="14" height="7" fill="#9f2016"/>
    <rect x="273" y="42" width="14" height="7" fill="#951e14"/>
    <rect x="308" y="42" width="7" height="7" fill="#951e14"/>
    <rect x="273" y="49" width="14" height="7" fill="#8b1c13"/>
    <rect x="301" y="49" width="14" height="7" fill="#8b1c13"/>
    <rect x="266" y="56" width="49" height="7" fill="#801a12"/>
    <rect x="343" y="14" width="14" height="7" fill="#be261a"/>
    <rect x="336" y="21" width="28" height="7" fill="#b42419"/>
    <rect x="329" y="28" width="14" height="7" fill="#a92217"/>
    <rect x="357" y="28" width="14" height="7" fill="#a92217"/>
    <rect x="329" y="35" width="14" height="7" fill="#9f2016"/>
    <rect x="357" y="35" width="14" height="7" fill="#9f2016"/>
    <rect x="329" y="42" width="42" height="7" fill="#951e14"/>
    <rect x="329" y="49" width="14" height="7" fill="#8b1c13"/>
    <rect x="357" y="49" width="14" height="7" fill="#8b1c13"/>
    <rect x="329" y="56" width="14" height="7" fill="#801a12"/>
    <rect x="357" y="56" width="14" height="7" fill="#801a12"/>
    <rect x="392" y="14" width="14" height="7" fill="#be261a"/>
    <rect x="420" y="14" width="14" height="7" fill="#be261a"/>
    <rect x="392" y="21" width="14" height="7" fill="#b42419"/>
    <rect x="420" y="21" width="14" height="7" fill="#b42419"/>
    <rect x="392" y="28" width="14" height="7" fill="#a92217"/>
    <rect x="420" y="28" width="14" height="7" fill="#a92217"/>
    <rect x="399" y="35" width="28" height="7" fill="#9f2016"/>
    <rect x="406" y="42" width="14" height="7" fill="#951e14"/>
    <rect x="406" y="49" width="14" height="7" fill="#8b1c13"/>
    <rect x="399" y="56" width="28" height="7" fill="#801a12"/>
  </g>
</svg>
