<svg xmlns="http://www.w3.org/2000/svg" viewBox="0 0 468 72" width="468" height="72">
  <title>umeplay</title>
  <!-- tools/logo.mjs が焼く決定論的ロゴ (dark) — banner.mjs のワードマーク字形/配色を再現 -->
  <g opacity="0.55">
    <rect x="9" y="24" width="12" height="6" fill="#1d6368"/>
    <rect x="33" y="24" width="12" height="6" fill="#1d6368"/>
    <rect x="9" y="30" width="12" height="6" fill="#1d6368"/>
    <rect x="33" y="30" width="12" height="6" fill="#1d6368"/>
    <rect x="9" y="36" width="12" height="6" fill="#1d6368"/>
    <rect x="33" y="36" width="12" height="6" fill="#1d6368"/>
    <rect x="9" y="42" width="12" height="6" fill="#1d6368"/>
    <rect x="33" y="42" width="12" height="6" fill="#1d6368"/>
    <rect x="15" y="48" width="18" height="6" fill="#1d6368"/>
    <rect x="39" y="48" width="12" height="6" fill="#1d6368"/>
    <rect x="63" y="24" width="12" height="6" fill="#1d6368"/>
    <rect x="87" y="24" width="12" height="6" fill="#1d6368"/>
    <rect x="63" y="30" width="42" height="6" fill="#1d6368"/>
    <rect x="63" y="36" width="42" height="6" fill="#1d6368"/>
    <rect x="63" y="42" width="12" height="6" fill="#1d6368"/>
    <rect x="81" y="42" width="6" height="6" fill="#1d6368"/>
    <rect x="93" y="42" width="12" height="6" fill="#1d6368"/>
    <rect x="63" y="48" width="12" height="6" fill="#1d6368"/>
    <rect x="93" y="48" width="12" height="6" fill="#1d6368"/>
    <rect x="123" y="24" width="24" height="6" fill="#1d6368"/>
    <rect x="117" y="30" width="12" height="6" fill="#1d6368"/>
    <rect x="141" y="30" width="12" height="6" fill="#1d6368"/>
    <rect x="117" y="36" width="36" height="6" fill="#1d6368"/>
    <rect x="117" y="42" width="12" height="6" fill="#1d6368"/>
    <rect x="123" y="48" width="24" height="6" fill="#1d6368"/>
    <rect x="171" y="24" width="12" height="6" fill="#1d6368"/>
    <rect x="189" y="24" width="18" height="6" fill="#1d6368"/>
    <rect x="177" y="30" width="12" height="6" fill="#1d6368"/>
    <rect x="201" y="30" width="12" height="6" fill="#1d6368"/>
    <rect x="177" y="36" width="12" height="6" fill="#1d6368"/>
    <rect x="201" y="36" width="12" height="6" fill="#1d6368"/>
    <rect x="177" y="42" width="30" height="6" fill="#1d6368"/>
    <rect x="177" y="48" width="12" height="6" fill="#1d6368"/>
    <rect x="171" y="54" width="24" height="6" fill="#1d6368"/>
    <rect x="231" y="12" width="18" height="6" fill="#1d6368"/>
    <rect x="237" y="18" width="12" height="6" fill="#1d6368"/>
    <rect x="237" y="24" width="12" height="6" fill="#1d6368"/>
    <rect x="237" y="30" width="12" height="6" fill="#1d6368"/>
    <rect x="237" y="36" width="12" height="6" fill="#1d6368"/>
    <rect x="237" y="42" width="12" height="6" fill="#1d6368"/>
    <rect x="231" y="48" width="24" height="6" fill="#1d6368"/>
    <rect x="285" y="24" width="24" height="6" fill="#1d6368"/>
    <rect x="303" y="30" width="12" height="6" fill="#1d6368"/>
    <rect x="285" y="36" width="30" height="6" fill="#1d6368"/>
    <rect x="279" y="42" width="12" height="6" fill="#1d6368"/>
    <rect x="303" y="42" width="12" height="6" fill="#1d6368"/>
    <rect x="285" y="48" width="18" height="6" fill="#1d6368"/>
    <rect x="309" y="48" width="12" height="6" fill="#1d6368"/>
    <rect x="333" y="24" width="12" height="6" fill="#1d6368"/>
    <rect x="357" y="24" width="12" height="6" fill="#1d6368"/>
    <rect x="333" y="30" width="12" height="6" fill="#1d6368"/>
    <rect x="357" y="30" width="12" height="6" fill="#1d6368"/>
    <rect x="333" y="36" width="12" height="6" fill="#1d6368"/>
    <rect x="357" y="36" width="12" height="6" fill="#1d6368"/>
    <rect x="339" y="42" width="30" height="6" fill="#1d6368"/>
    <rect x="357" y="48" width="12" height="6" fill="#1d6368"/>
    <rect x="333" y="54" width="30" height="6" fill="#1d6368"/>
  </g>
  <g opacity="0.55">
    <rect x="15" y="25" width="12" height="6" fill="#5e4679"/>
    <rect x="39" y="25" width="12" height="6" fill="#5e4679"/>
    <rect x="15" y="31" width="12" height="6" fill="#5e4679"/>
    <rect x="39" y="31" width="12" height="6" fill="#5e4679"/>
    <rect x="15" y="37" width="12" height="6" fill="#5e4679"/>
    <rect x="39" y="37" width="12" height="6" fill="#5e4679"/>
    <rect x="15" y="43" width="12" height="6" fill="#5e4679"/>
    <rect x="39" y="43" width="12" height="6" fill="#5e4679"/>
    <rect x="21" y="49" width="18" height="6" fill="#5e4679"/>
    <rect x="45" y="49" width="12" height="6" fill="#5e4679"/>
    <rect x="69" y="25" width="12" height="6" fill="#5e4679"/>
    <rect x="93" y="25" width="12" height="6" fill="#5e4679"/>
    <rect x="69" y="31" width="42" height="6" fill="#5e4679"/>
    <rect x="69" y="37" width="42" height="6" fill="#5e4679"/>
    <rect x="69" y="43" width="12" height="6" fill="#5e4679"/>
    <rect x="87" y="43" width="6" height="6" fill="#5e4679"/>
    <rect x="99" y="43" width="12" height="6" fill="#5e4679"/>
    <rect x="69" y="49" width="12" height="6" fill="#5e4679"/>
    <rect x="99" y="49" width="12" height="6" fill="#5e4679"/>
    <rect x="129" y="25" width="24" height="6" fill="#5e4679"/>
    <rect x="123" y="31" width="12" height="6" fill="#5e4679"/>
    <rect x="147" y="31" width="12" height="6" fill="#5e4679"/>
    <rect x="123" y="37" width="36" height="6" fill="#5e4679"/>
    <rect x="123" y="43" width="12" height="6" fill="#5e4679"/>
    <rect x="129" y="49" width="24" height="6" fill="#5e4679"/>
    <rect x="177" y="25" width="12" height="6" fill="#5e4679"/>
    <rect x="195" y="25" width="18" height="6" fill="#5e4679"/>
    <rect x="183" y="31" width="12" height="6" fill="#5e4679"/>
    <rect x="207" y="31" width="12" height="6" fill="#5e4679"/>
    <rect x="183" y="37" width="12" height="6" fill="#5e4679"/>
    <rect x="207" y="37" width="12" height="6" fill="#5e4679"/>
    <rect x="183" y="43" width="30" height="6" fill="#5e4679"/>
    <rect x="183" y="49" width="12" height="6" fill="#5e4679"/>
    <rect x="177" y="55" width="24" height="6" fill="#5e4679"/>
    <rect x="237" y="13" width="18" height="6" fill="#5e4679"/>
    <rect x="243" y="19" width="12" height="6" fill="#5e4679"/>
    <rect x="243" y="25" width="12" height="6" fill="#5e4679"/>
    <rect x="243" y="31" width="12" height="6" fill="#5e4679"/>
    <rect x="243" y="37" width="12" height="6" fill="#5e4679"/>
    <rect x="243" y="43" width="12" height="6" fill="#5e4679"/>
    <rect x="237" y="49" width="24" height="6" fill="#5e4679"/>
    <rect x="291" y="25" width="24" height="6" fill="#5e4679"/>
    <rect x="309" y="31" width="12" height="6" fill="#5e4679"/>
    <rect x="291" y="37" width="30" height="6" fill="#5e4679"/>
    <rect x="285" y="43" width="12" height="6" fill="#5e4679"/>
    <rect x="309" y="43" width="12" height="6" fill="#5e4679"/>
    <rect x="291" y="49" width="18" height="6" fill="#5e4679"/>
    <rect x="315" y="49" width="12" height="6" fill="#5e4679"/>
    <rect x="339" y="25" width="12" height="6" fill="#5e4679"/>
    <rect x="363" y="25" width="12" height="6" fill="#5e4679"/>
    <rect x="339" y="31" width="12" height="6" fill="#5e4679"/>
    <rect x="363" y="31" width="12" height="6" fill="#5e4679"/>
    <rect x="339" y="37" width="12" height="6" fill="#5e4679"/>
    <rect x="363" y="37" width="12" height="6" fill="#5e4679"/>
    <rect x="345" y="43" width="30" height="6" fill="#5e4679"/>
    <rect x="363" y="49" width="12" height="6" fill="#5e4679"/>
    <rect x="339" y="55" width="30" height="6" fill="#5e4679"/>
  </g>
  <g>
    <rect x="12" y="24" width="12" height="6" fill="#4affff"/>
    <rect x="36" y="24" width="12" height="6" fill="#4affff"/>
    <rect x="12" y="30" width="12" height="6" fill="#4affff"/>
    <rect x="36" y="30" width="12" height="6" fill="#4affff"/>
    <rect x="12" y="36" width="12" height="6" fill="#4affff"/>
    <rect x="36" y="36" width="12" height="6" fill="#4affff"/>
    <rect x="12" y="42" width="12" height="6" fill="#4affff"/>
    <rect x="36" y="42" width="12" height="6" fill="#4affff"/>
    <rect x="18" y="48" width="18" height="6" fill="#4affff"/>
    <rect x="42" y="48" width="12" height="6" fill="#4affff"/>
    <rect x="66" y="24" width="12" height="6" fill="#52f168"/>
    <rect x="90" y="24" width="12" height="6" fill="#52f168"/>
    <rect x="66" y="30" width="42" height="6" fill="#52f168"/>
    <rect x="66" y="36" width="42" height="6" fill="#52f168"/>
    <rect x="66" y="42" width="12" height="6" fill="#52f168"/>
    <rect x="84" y="42" width="6" height="6" fill="#52f168"/>
    <rect x="96" y="42" width="12" height="6" fill="#52f168"/>
    <rect x="66" y="48" width="12" height="6" fill="#52f168"/>
    <rect x="96" y="48" width="12" height="6" fill="#52f168"/>
    <rect x="126" y="24" width="24" height="6" fill="#ffc72c"/>
    <rect x="120" y="30" width="12" height="6" fill="#ffc72c"/>
    <rect x="144" y="30" width="12" height="6" fill="#ffc72c"/>
    <rect x="120" y="36" width="36" height="6" fill="#ffc72c"/>
    <rect x="120" y="42" width="12" height="6" fill="#ffc72c"/>
    <rect x="126" y="48" width="24" height="6" fill="#ffc72c"/>
    <rect x="174" y="24" width="12" height="6" fill="#f4b6ff"/>
    <rect x="192" y="24" width="18" height="6" fill="#f4b6ff"/>
    <rect x="180" y="30" width="12" height="6" fill="#f4b6ff"/>
    <rect x="204" y="30" width="12" height="6" fill="#f4b6ff"/>
    <rect x="180" y="36" width="12" height="6" fill="#f4b6ff"/>
    <rect x="204" y="36" width="12" height="6" fill="#f4b6ff"/>
    <rect x="180" y="42" width="30" height="6" fill="#f4b6ff"/>
    <rect x="180" y="48" width="12" height="6" fill="#f4b6ff"/>
    <rect x="174" y="54" width="24" height="6" fill="#f4b6ff"/>
    <rect x="234" y="12" width="18" height="6" fill="#72d8ff"/>
    <rect x="240" y="18" width="12" height="6" fill="#72d8ff"/>
    <rect x="240" y="24" width="12" height="6" fill="#72d8ff"/>
    <rect x="240" y="30" width="12" height="6" fill="#72d8ff"/>
    <rect x="240" y="36" width="12" height="6" fill="#72d8ff"/>
    <rect x="240" y="42" width="12" height="6" fill="#72d8ff"/>
    <rect x="234" y="48" width="24" height="6" fill="#72d8ff"/>
    <rect x="288" y="24" width="24" height="6" fill="#4affff"/>
    <rect x="306" y="30" width="12" height="6" fill="#4affff"/>
    <rect x="288" y="36" width="30" height="6" fill="#4affff"/>
    <rect x="282" y="42" width="12" height="6" fill="#4affff"/>
    <rect x="306" y="42" width="12" height="6" fill="#4affff"/>
    <rect x="288" y="48" width="18" height="6" fill="#4affff"/>
    <rect x="312" y="48" width="12" height="6" fill="#4affff"/>
    <rect x="336" y="24" width="12" height="6" fill="#52f168"/>
    <rect x="360" y="24" width="12" height="6" fill="#52f168"/>
    <rect x="336" y="30" width="12" height="6" fill="#52f168"/>
    <rect x="360" y="30" width="12" height="6" fill="#52f168"/>
    <rect x="336" y="36" width="12" height="6" fill="#52f168"/>
    <rect x="360" y="36" width="12" height="6" fill="#52f168"/>
    <rect x="342" y="42" width="30" height="6" fill="#52f168"/>
    <rect x="360" y="48" width="12" height="6" fill="#52f168"/>
    <rect x="336" y="54" width="30" height="6" fill="#52f168"/>
  </g>
  <g>
    <rect x="414" y="15" width="12" height="6" fill="#f4b6ff"/>
    <rect x="438" y="15" width="12" height="6" fill="#f4b6ff"/>
    <rect x="408" y="21" width="48" height="6" fill="#f4b6ff"/>
    <rect x="408" y="27" width="48" height="6" fill="#f4b6ff"/>
    <rect x="408" y="33" width="48" height="6" fill="#f4b6ff"/>
    <rect x="414" y="39" width="36" height="6" fill="#f4b6ff"/>
    <rect x="420" y="45" width="24" height="6" fill="#f4b6ff"/>
    <rect x="426" y="51" width="12" height="6" fill="#f4b6ff"/>
  </g>
</svg>
